<svg xmlns="http://www.w3.org/2000/svg" width="256" height="256"><path fill="#1976D2" fill-opacity=".016" fill-rule="evenodd" d="M0 128.004v128.004l128.25-.254 128.25-.254.254-127.75L257.008 0H0zm.485.496c0 70.4.119 99.053.265 63.672s.146-92.98 0-128S.485 58.1.485 128.5"/><path fill="#1976D2" fill-opacity=".163" fill-rule="evenodd" d="M203.75 7.06c-1.617.96-1.75 3.877-1.756 38.24-.003 22.288-.415 38.677-1.029 40.886-2.021 7.278-10.321 11.363-17.226 8.478-6.055-2.53-7.157-5.35-7.861-20.116-.878-18.423-4.152-24.844-15.378-30.161-9.095-4.307-18.646-2.758-26.49 4.294-8.251 7.418-8.435 8.328-8.811 43.503l-.328 30.684-36.686.333-36.685.333-8.196 2.847C23.809 133.155 9.355 147.837 2.825 167.5c-1.934 5.823-2.316 9.017-2.271 19 .048 10.432.417 13.045 2.824 20 3.695 10.676 7.687 17.428 14.8 25.031C35.6 250.155 54.207 252.696 97 242.297c10.717-2.604 12.897-2.792 32-2.758 18.728.034 21.408.265 31 2.665 20.867 5.22 38.933 7.325 49.125 5.723 20.973-3.296 38.955-21.651 44.505-45.427.898-3.85 2.024-7.781 2.502-8.736 1.032-2.064 1.184-17.414.163-16.392-.388.388-1.274-2.124-1.968-5.583-3.401-16.943-16.547-33.856-32.385-41.663-13.193-6.504-17.692-7.089-54.692-7.109L135 123V93.657c0-28.597.058-29.452 2.275-33.644 4.035-7.631 13.044-10.21 20.679-5.919 6.293 3.537 7.4 6.566 8.011 21.906.497 12.488.747 13.858 3.341 18.272 9.4 15.997 32.65 14.401 40.391-2.772 1.618-3.59 1.831-7.89 2.073-42 .286-40.219.038-42.713-4.295-43.24-1.086-.132-2.762.228-3.725.8M.349 186c0 4.675.173 6.588.383 4.25s.211-6.162 0-8.5c-.21-2.338-.383-.425-.383 4.25"/><path fill="#1976D2" fill-opacity=".314" fill-rule="evenodd" d="M204.204 7.57 202 9.113v38.209c0 35.095-.149 38.487-1.827 41.616-5.298 9.878-19.303 8.903-23.802-1.656-.893-2.097-1.371-7.195-1.371-14.636 0-10.555-.211-11.821-2.793-16.764-9.418-18.028-34.302-17.997-43.457.054L126 61.359V123h8.918l.291-30.929c.279-29.641.379-31.045 2.396-33.75 6.523-8.746 19.359-8.789 25.566-.086 2.073 2.906 2.392 4.75 2.901 16.765.635 14.99 1.235 17.12 6.447 22.889 10.135 11.219 28.632 8.736 35.698-4.79l2.806-5.371-.262-39.492c-.255-38.535-.311-39.526-2.307-40.851-1.745-1.158-2.371-1.131-4.25.185m-17.747 135.293c-4.411 2.69-6.624 6.624-6.624 11.777 0 8.303 6.129 13.777 14.605 13.044 4.102-.354 5.489-1.027 8.19-3.975 4.255-4.643 5.161-9.433 2.725-14.402-3.659-7.465-12.357-10.431-18.896-6.444M54 163v9H36v28h18v18h27v-18h18v-28H81v-18H54zm165.02 10.752c-10.584 5.317-10.42 19.353.287 24.601 5.005 2.454 9.765 1.524 14.524-2.837 3.444-3.156 3.669-3.731 3.669-9.359 0-5.006-.413-6.443-2.5-8.705-2.641-2.863-7.735-5.453-10.718-5.45-.98 0-3.348.788-5.262 1.75m-64.127.745c-8.514 4.628-8.389 18.609.206 23.054 9.177 4.746 19.901-1.642 19.901-11.853 0-3.967-3.482-9.624-7.03-11.419-3.272-1.655-9.831-1.546-13.077.218"/><path fill="#1976D2" fill-opacity=".528" fill-rule="evenodd" d="M203.309 8.25c-.445.688-1.034 19.173-1.309 41.078l-.5 39.828-3.735 3.422c-3.162 2.896-4.467 3.421-8.5 3.418-5.311-.004-10.354-2.512-12.449-6.192-.808-1.421-1.523-7.481-1.863-15.804-.613-14.984-1.824-18.668-8.115-24.699-4.549-4.36-9.677-6.305-16.556-6.279-6.853.026-12.476 2.333-16.986 6.969-6.708 6.897-6.766 7.234-7.086 41.759l-.291 31.25H134V96.049c0-15.112.463-29.109 1.054-31.865 2.531-11.801 16.094-16.979 24.952-9.525 4.903 4.125 5.994 7.249 5.994 17.155 0 17.175 3.225 25.253 12.044 30.17 3.387 1.888 5.895 2.478 10.456 2.458 8.963-.039 15.586-4.023 19.847-11.942 2.082-3.868 2.163-5.281 2.447-42.734.2-26.344-.051-39.378-.785-40.75-1.206-2.252-5.426-2.735-6.7-.766m-15.921 134.73c-1.161.469-3.043 2.037-4.181 3.484-6.625 8.423-1.043 20.536 9.465 20.536 5.642 0 9.812-2.394 11.925-6.845 3.937-8.298-2.005-18.223-10.832-18.092-2.346.035-5.215.448-6.377.917M54 164v9H36v26h18v18h27v-18h18v-26H81v-18H54zm165.418 9.915c-4.19 1.803-7.418 6.919-7.418 11.757 0 8.403 6.122 14.111 14.001 13.055 5.401-.725 8.666-3.287 10.583-8.308 1.584-4.146 1.584-4.692 0-8.838-.928-2.43-2.872-5.195-4.32-6.143-3.065-2.009-9.848-2.812-12.846-1.523"/></svg>